<svg width="19" height="19" viewBox="0 0 19 19" fill="none" xmlns="http://www.w3.org/2000/svg">
<path d="M14.2504 8.0749C14.2504 9.43756 13.808 10.6963 13.0629 11.7176L16.8213 15.479C17.1924 15.8501 17.1924 16.4527 16.8213 16.8238C16.4502 17.1949 15.8476 17.1949 15.4765 16.8238L11.718 13.0624C10.6968 13.8076 9.43805 14.2499 8.07539 14.2499C4.6643 14.2499 1.90039 11.486 1.90039 8.0749C1.90039 4.66381 4.6643 1.8999 8.07539 1.8999C11.4865 1.8999 14.2504 4.66381 14.2504 8.0749ZM8.07539 12.3499C10.4355 12.3499 12.3504 10.4351 12.3504 8.0749C12.3504 5.71475 10.4355 3.7999 8.07539 3.7999C5.71523 3.7999 3.80039 5.71475 3.80039 8.0749C3.80039 10.4351 5.71523 12.3499 8.07539 12.3499Z" fill="black"/>
</svg>
